<svg width="502" height="340" viewBox="0 0 502 340" fill="none" xmlns="http://www.w3.org/2000/svg">
<g clip-path="url(#clip0_41_281)">
<path d="M273.68 196.8H212.69C212.69 211.71 224.53 223.71 239.23 223.71C249.98 223.71 259.24 217.22 263.32 207.98L270.4 211.29C264.95 223.3 253.11 231.58 239.23 231.58C220.31 231.58 204.93 215.98 204.93 196.8C204.93 177.62 220.31 161.88 239.23 161.88C258.15 161.88 273.67 177.61 273.67 196.8H273.68ZM213.92 188.79H264.7C261.3 177.89 251.22 169.88 239.24 169.88C227.26 169.88 217.19 177.89 213.92 188.79Z" fill="#022327"/>
<path d="M287.19 153.32C283.11 153.32 280.38 150.56 280.38 146.42C280.38 142.69 283.37 139.52 287.19 139.52C291 139.66 294 142.42 294 146.42C294 150.42 291.55 153.32 287.19 153.32Z" fill="#022327"/>
<path d="M291 161.88H283.24V231.58H291V161.88Z" fill="#022327"/>
<path d="M321.12 170.02C320.17 169.74 319.35 169.61 318.4 169.61C312.82 169.61 308.6 174.44 308.6 179.96C308.46 180.65 308.46 216.12 308.46 231.58H300.7V181.06C300.7 170.43 308.32 162.01 318.67 162.01C320.17 162.01 321.26 162.15 322.89 162.29L321.12 170.02Z" fill="#022327"/>
<path d="M388.26 196.8V231.58H380.36V218.88C374.1 226.61 364.57 231.58 353.82 231.58C334.9 231.58 319.52 215.98 319.52 196.8C319.52 177.62 334.9 161.88 353.82 161.88C372.74 161.88 388.26 177.61 388.26 196.8ZM327.28 196.8C327.28 211.71 339.12 223.71 353.82 223.71C368.52 223.71 380.36 211.7 380.36 196.8C380.36 181.9 368.52 169.89 353.82 169.89C339.12 169.89 327.28 181.9 327.28 196.8Z" fill="#022327"/>
<path d="M224.99 250.41V276.22C224.99 281.33 224.99 286.3 225.13 291.26C225.13 302.85 234.39 312.24 245.69 312.24C256.99 312.24 266.38 302.85 266.38 291.26V250.41H274.14L274.28 291.26C274.28 307.13 261.48 320.11 245.69 320.11C229.9 320.11 217.24 307.14 217.24 291.26V250.41H225H224.99Z" fill="#022327"/>
<path d="M306.95 319.01C305.44 319.98 304.48 320.11 302.15 320.11C291.73 320.11 283.24 311.41 283.24 301.06V228.05H291.05V258.41H301.88V266.28H291.05C291.05 277.87 290.91 299.96 290.91 299.96C291.18 307.14 295.98 312.24 302.15 312.24C303.11 312.24 304.21 311.96 305.3 311.69L306.94 319.01H306.95Z" fill="#022327"/>
<path d="M337.36 258.55C336.41 258.27 335.59 258.14 334.64 258.14C329.06 258.14 324.84 262.97 324.84 268.49C324.7 269.18 324.7 304.65 324.7 320.11H316.94V269.59C316.94 258.96 324.56 250.54 334.91 250.54C336.41 250.54 337.5 250.68 339.13 250.82L337.36 258.55Z" fill="#022327"/>
<path d="M404.51 285.33H343.52C343.52 300.24 355.36 312.24 370.06 312.24C380.81 312.24 390.07 305.75 394.15 296.51L401.23 299.82C395.78 311.83 383.94 320.11 370.06 320.11C351.14 320.11 335.76 304.51 335.76 285.33C335.76 266.15 351.14 250.41 370.06 250.41C388.98 250.41 404.5 266.14 404.5 285.33H404.51ZM344.75 277.32H395.53C392.13 266.42 382.05 258.41 370.07 258.41C358.09 258.41 348.02 266.42 344.75 277.32Z" fill="#022327"/>
<path d="M434.49 258.55C433.54 258.27 432.72 258.14 431.77 258.14C426.19 258.14 421.97 262.97 421.97 268.49C421.83 269.18 421.83 304.65 421.83 320.11H414.07V269.59C414.07 258.96 421.69 250.54 432.04 250.54C433.54 250.54 434.63 250.68 436.26 250.82L434.49 258.55Z" fill="#022327"/>
<path d="M501.63 285.33V320.11H493.73V307.41C487.47 315.14 477.94 320.11 467.19 320.11C448.27 320.11 432.89 304.51 432.89 285.33C432.89 266.15 448.27 250.41 467.19 250.41C486.11 250.41 501.63 266.14 501.63 285.33ZM440.65 285.33C440.65 300.24 452.49 312.24 467.19 312.24C481.89 312.24 493.73 300.23 493.73 285.33C493.73 270.43 481.89 258.42 467.19 258.42C452.49 258.42 440.65 270.43 440.65 285.33Z" fill="#022327"/>
<path d="M264.69 4.22006C264.69 3.63006 264.35 3.11006 263.81 2.88006C239.38 -2.65994 214.93 1.64006 190.3 0.820056C135.33 1.94006 136.38 40.6201 114.89 79.2101C52.34 152.67 27.58 226.15 3.50995 317.88C2.18995 322.07 -1.60005 332.34 0.749951 335.46C11.6 340.8 16.6 333.24 22.19 325.52C29.2299 316.13 44.97 283.95 42.41 295.61C42.04 297.3 30.28 333.1 29.61 334.62C27.4 341.16 38.8999 340.62 43.2599 337.68C48.2399 334.32 54.5 326.98 59.24 321.38C77.82 299.4 119.35 271.39 152.06 239.19C154.2 243.76 155.09 253.14 153.83 289.05C153.16 304.8 154.88 306.95 153.66 322.65C148.86 334.85 117.73 320.1 125.14 337.05C136.04 336.63 148.52 337.48 159.34 336.94C163.22 336.51 168.41 334.08 172.84 334.1C176.86 334.12 178.67 338.2 185.35 336.91C187.77 336.45 189.29 331.67 194.08 331.38C197.67 331.17 217.49 340.73 214.37 331.31C207.06 319.35 178.98 331.43 180.27 315.84C182.12 293.48 183.07 273.34 183.95 254.95C184.91 234.48 183.6 212.26 186.89 192C188.34 183.19 195.98 170.71 198.09 160.14C208.02 119.58 203.36 70.6201 219.94 32.4101C229.15 20.4101 248.74 11.5201 263 7.27006C263.5 7.03006 264.69 5.75006 264.69 5.19006V4.24006V4.22006ZM166.75 231C166.87 229.27 169.24 223.56 171.74 222.74C172.49 222.49 173.3 222.99 173.51 223.76C173.88 225.14 174.27 226.48 174.31 227.98C175.02 257.05 174.24 287.84 171.37 313.28C171.07 315.97 171.46 318.9 171.42 321.69C171.42 322.46 172.17 321.64 171.42 321.69C161.69 322.3 163.27 315.77 163.82 308.78M186.78 36.8101C182.7 36.8101 179.97 34.0501 179.97 29.9101C179.97 26.1801 182.96 23.0101 186.78 23.0101C190.59 23.1501 193.59 25.9101 193.59 29.9101C193.59 33.9101 191.14 36.8101 186.78 36.8101Z" fill="#022327"/>
</g>
<defs>
<clipPath id="clip0_41_281">
<rect width="501.63" height="339.77" fill="white"/>
</clipPath>
</defs>
</svg>
