<svg width="557" height="720" viewBox="0 0 557 720" fill="none" xmlns="http://www.w3.org/2000/svg">
<g clip-path="url(#clip0_39_120)">
<path id="patita1" d="M1.42296 3.6241C15.1581 6.31219 34.4083 22.9199 48.9625 22.6972C61.1292 22.5157 74.3424 19.2442 86.4948 20.7501C89.3295 21.0994 90.4583 22.792 91.6049 25.2458C90.8139 26.6466 89.4348 27.455 87.9263 27.909C74.4387 31.9435 64.9313 28.9738 52.2873 29.9705C51.3987 30.0398 49.579 29.5316 50.2758 31.189C50.5597 31.8596 60.0152 38.5216 61.7401 40.0707C66.8505 44.6172 70.9634 50.0456 75.6299 54.6838C80.2069 59.2338 88.963 65.7735 92.4862 70.3811C95.0741 73.7516 95.9077 76.8925 90.262 75.9401C80.1786 74.2302 62.4952 50.5835 53.6077 43.3849C51.0409 41.2957 48.1013 38.5112 44.6115 38.9782C44.2328 39.3359 46.5073 47.1997 46.8971 48.5293C48.5725 54.1387 57.2154 74.3433 56.1102 78.1821C54.5086 83.775 47.2588 76.4642 46.1691 73.0077C42.8611 62.4991 40.895 51.3093 37.6875 40.6351C31.0259 18.4763 13.7548 22.7514 0.0274081 11.5882" fill="black"/>
<path id="patita2" d="M219.481 177.577C219.102 177.934 221.377 185.798 221.766 187.128C223.442 192.737 232.085 212.942 230.98 216.781C229.378 222.373 222.128 215.063 221.038 211.606C217.73 201.098 215.764 189.908 212.557 179.233C205.895 157.075 188.624 161.35 174.897 150.187C170.938 146.965 170.086 141.007 176.267 142.21C190.002 144.898 209.252 161.506 223.806 161.283C235.973 161.102 249.186 157.83 261.339 159.336C264.173 159.685 265.302 161.378 266.449 163.832C265.658 165.232 264.279 166.041 262.77 166.495C249.283 170.529 239.775 167.56 227.131 168.556C226.243 168.626 224.423 168.117 225.12 169.775C225.404 170.445 234.859 177.107 236.584 178.657C241.694 183.203 245.807 188.631 250.474 193.27C255.051 197.82 263.807 204.359 267.33 208.967C269.918 212.337 270.752 215.478 265.106 214.526C255.022 212.816 237.339 189.169 228.452 181.971C225.885 179.882 222.945 177.097 219.455 177.564L219.481 177.577Z" fill="black"/>
<path id="patita3" d="M128.274 214.348C127.633 215.456 123.359 214.381 122.389 213.715C120.896 212.659 117.288 200.934 116.432 198.237C111.398 182.221 112.056 174.135 99.8019 160.996C92.6003 153.279 83.0934 146.541 76.4701 137.919C74.3406 134.71 76.0107 131.807 79.8361 132.162C87.881 132.909 101.371 156.304 114.077 158.821C122.916 160.577 135.416 157.019 144.659 156.476C146.677 156.361 148.742 157.464 151.142 157.346C153.313 157.243 155.464 155.897 157.559 155.921C163.161 156.011 170.271 163.196 163.421 164.535C155.848 166.019 142.664 164.177 134.12 164.754C131.149 164.963 127.995 166.228 124.752 165.627C123.9 169.338 128.689 171.361 131.584 173.042C140.024 177.935 172.298 189.521 175.028 197.065C175.61 198.673 176.064 200.154 174.139 201.004C172.606 201.522 171.395 200.921 170.008 200.486C164.803 198.883 155.197 192.577 149.655 189.962C140.201 185.508 131.99 182.72 122.921 176.88C121.008 175.649 119.448 172.209 117.498 175.013C123.422 187.28 128.576 200.492 128.248 214.336L128.274 214.348Z" fill="black"/>
<path id="patita4" d="M371.313 426.667C370.934 427.025 373.209 434.889 373.598 436.219C375.274 441.828 383.917 462.033 382.812 465.871C381.21 471.464 373.96 464.153 372.871 460.697C369.563 450.188 367.596 438.998 364.389 428.324C357.727 406.165 340.456 410.441 326.729 399.277C322.77 396.056 321.918 390.098 328.099 391.301C341.834 393.989 361.084 410.597 375.638 410.374C387.805 410.192 401.018 406.921 413.171 408.427C416.005 408.776 417.134 410.469 418.281 412.922C417.49 414.323 416.111 415.132 414.602 415.586C401.115 419.62 391.607 416.65 378.963 417.647C378.075 417.716 376.255 417.208 376.952 418.866C377.236 419.536 386.691 426.198 388.416 427.747C393.526 432.294 397.639 437.722 402.306 442.36C406.883 446.91 415.639 453.45 419.162 458.058C421.75 461.428 422.584 464.569 416.938 463.617C406.855 461.907 389.171 438.26 380.284 431.062C377.717 428.972 374.777 426.188 371.287 426.655L371.313 426.667Z" fill="black"/>
<path id="patita5" d="M280.119 463.439C279.478 464.547 275.203 463.472 274.234 462.805C272.741 461.75 269.133 450.025 268.276 447.328C263.243 431.312 263.901 423.226 251.647 410.087C244.445 402.369 234.938 395.632 228.315 387.01C226.185 383.801 227.855 380.898 231.681 381.253C239.726 381.999 253.216 405.395 265.921 407.912C274.76 409.668 287.26 406.109 296.503 405.566C298.522 405.452 300.587 406.555 302.987 406.437C305.158 406.334 307.308 404.988 309.404 405.012C315.006 405.102 322.115 412.287 315.265 413.626C307.693 415.11 294.509 413.268 285.965 413.844C282.994 414.054 279.84 415.318 276.597 414.718C275.745 418.428 280.534 420.452 283.428 422.133C291.869 427.026 324.143 438.612 326.873 446.156C327.455 447.763 327.909 449.245 325.984 450.095C324.451 450.612 323.24 450.011 321.853 449.576C316.647 447.974 307.042 441.668 301.499 439.053C292.046 434.599 283.835 431.811 274.766 425.971C272.853 424.74 271.293 421.3 269.343 424.104C275.266 436.371 280.421 449.583 280.093 463.427L280.119 463.439Z" fill="black"/>
<path id="patita6" d="M506.794 675.003C506.416 675.361 508.69 683.225 509.08 684.554C510.755 690.164 519.398 710.368 518.293 714.207C516.691 719.8 509.442 712.489 508.352 709.033C505.044 698.524 503.078 687.334 499.87 676.66C493.209 654.501 475.938 658.777 462.21 647.613C458.252 644.391 457.4 638.434 463.58 639.637C477.315 642.325 496.566 658.933 511.12 658.71C523.287 658.528 536.5 655.257 548.652 656.763C551.487 657.112 552.616 658.805 553.762 661.258C552.971 662.659 551.592 663.468 550.084 663.922C536.596 667.956 527.089 664.986 514.445 665.983C513.556 666.052 511.736 665.544 512.433 667.202C512.717 667.872 522.173 674.534 523.897 676.083C529.008 680.63 533.121 686.058 537.787 690.696C542.364 695.246 551.12 701.786 554.644 706.394C557.231 709.764 558.065 712.905 552.419 711.953C542.336 710.243 524.652 686.596 515.765 679.398C513.198 677.308 510.259 674.524 506.769 674.991L506.794 675.003Z" fill="black"/>
<path id="patita7" d="M415.587 711.775C414.947 712.883 410.672 711.807 409.702 711.141C408.209 710.086 404.601 698.361 403.745 695.664C398.712 679.648 399.37 671.562 387.115 658.422C379.914 650.705 370.407 643.968 363.784 635.346C361.654 632.137 363.324 629.234 367.15 629.589C375.194 630.335 388.685 653.731 401.39 656.248C410.229 658.004 422.729 654.445 431.972 653.902C433.991 653.788 436.056 654.89 438.455 654.773C440.627 654.67 442.777 653.324 444.873 653.348C450.475 653.438 457.584 660.623 450.734 661.962C443.161 663.446 429.978 661.604 421.434 662.18C418.463 662.39 415.309 663.654 412.066 663.054C411.214 666.764 416.003 668.788 418.897 670.469C427.338 675.362 459.612 686.948 462.341 694.492C462.924 696.099 463.378 697.581 461.453 698.431C459.919 698.948 458.709 698.347 457.321 697.912C452.116 696.31 442.51 690.004 436.968 687.389C427.515 682.935 419.304 680.147 410.235 674.307C408.321 673.076 406.762 669.636 404.812 672.44C410.735 684.707 415.89 697.919 415.562 711.763L415.587 711.775Z" fill="black"/>
<path id="patita8" d="M164.629 674.325L163.892 674.241L162.346 672.805L164.629 674.325Z" fill="white"/>
<path id="patita9" d="M29.5022 620.685L29.4638 620.647C29.4638 620.647 29.4894 620.672 29.5021 620.672L29.5022 620.685Z" fill="black"/>
</g>
<defs>
<clipPath id="clip0_39_120">
<rect width="716" height="552" fill="white" transform="translate(551.988) rotate(89.6229)"/>
</clipPath>
</defs>
</svg>
