<svg width="77" height="95" viewBox="0 0 77 95" fill="none" xmlns="http://www.w3.org/2000/svg">
<path d="M0 93.5776C2.77844 79.8605 19.5125 60.72 19.3856 46.1646C19.2841 33.997 16.0997 20.7625 17.6856 8.62033C18.0535 5.78799 19.7536 4.6703 22.2148 3.53991C23.6104 4.34008 24.4097 5.72449 24.8537 7.23592C28.7993 20.7498 25.7672 30.2375 26.6806 42.8877C26.7441 43.7768 26.2239 45.5931 27.8859 44.9072C28.5583 44.6278 35.2824 35.2163 36.8429 33.5017C41.4229 28.4212 46.8782 24.3442 51.547 19.7083C56.127 15.1613 62.7242 6.44846 67.355 2.95567C70.7424 0.390062 73.8887 -0.422806 72.8991 5.21646C71.123 15.2884 47.3603 32.8158 40.1034 41.6557C37.9974 44.2086 35.1936 47.1299 35.6376 50.6227C35.9928 51.0037 43.8714 48.781 45.2036 48.4C50.8239 46.7616 71.0849 38.2519 74.9164 39.3823C80.4986 41.0207 73.1402 48.2222 69.6767 49.2891C59.1465 52.5278 47.9439 54.4203 37.2489 57.5574C15.0467 64.0731 19.208 81.3719 7.95471 95.0255" fill="black"/>
</svg>
