<svg width="514" height="146" viewBox="0 0 514 146" fill="none" xmlns="http://www.w3.org/2000/svg">
<g clip-path="url(#clip0_41_983)">
<path d="M60.5386 105.868C59.3047 103.748 57.7183 101.885 55.7793 100.3C51.0788 96.435 44.4002 94.2551 35.763 93.7596C34.5291 93.7001 33.2365 93.6605 31.9242 93.6605H19.8009V82.0669H49.7666C48.0626 79.1536 47.2205 75.5864 47.2205 71.3255V65.9746H2.11523V109.198H31.9242C36.233 109.198 39.5234 110.09 41.8149 111.893C44.1064 113.697 45.2619 116.253 45.2619 119.543C45.2619 122.833 44.0672 125.33 41.6974 127.252C39.3275 129.175 36.0959 130.126 32.0222 130.126C27.9484 130.126 24.5797 129.214 22.1315 127.371C19.6834 125.528 18.4495 123.031 18.4495 119.88H0C0 128.283 2.78113 134.743 8.34339 139.242C13.9057 143.741 21.8769 146 32.2572 146C38.4854 146 43.9889 144.91 48.7677 142.73C53.5466 140.55 57.2482 137.478 59.8922 133.495C62.5167 129.511 63.8485 124.953 63.8485 119.761C63.8485 114.271 62.7517 109.654 60.5386 105.868Z" fill="#1D1D1B"/>
<path d="M95.929 43.2235C95.5569 42.3316 95.126 41.4795 94.6755 40.6471C91.8161 35.4349 87.7423 31.4119 82.4346 28.5581C78.498 26.4375 74.0521 25.1097 69.1361 24.5548C67.4518 24.3764 65.7087 24.2773 63.9068 24.2773C56.7777 24.2773 50.5691 25.7042 45.2811 28.5581C39.9734 31.4119 35.8997 35.4349 33.0402 40.6471C30.1807 45.8593 28.751 51.9632 28.751 58.9392V71.3255C28.751 75.1702 29.1819 78.7573 30.0632 82.0669C30.7683 84.7622 31.7475 87.2593 33.0402 89.6176C33.8432 91.104 34.7637 92.4913 35.7626 93.7596C38.3087 97.0098 41.4619 99.6654 45.2615 101.707C49.7074 104.105 54.7996 105.492 60.5185 105.868C61.6153 105.948 62.7317 105.987 63.8872 105.987C70.938 105.987 77.1074 104.561 82.4151 101.707C87.7227 98.8529 91.7965 94.8298 94.656 89.6176C96.262 86.7044 97.3979 83.4939 98.103 80.0257C98.6514 77.2908 98.9256 74.3973 98.9256 71.3255V58.9392C98.9256 53.0731 97.9267 47.8411 95.9094 43.2235H95.929ZM76.089 84.6037C73.0924 87.9133 69.0186 89.5582 63.9068 89.5582C58.795 89.5582 54.6429 87.9331 51.6659 84.6631C50.9413 83.8704 50.3145 82.9984 49.7661 82.0669C48.0622 79.1537 47.22 75.5864 47.22 71.3255V58.9392C47.22 53.3109 48.7085 48.8518 51.6659 45.6016C54.6233 42.3316 58.7167 40.7066 63.9068 40.7066C65.8066 40.7066 67.5497 40.9246 69.1361 41.3606C70.6834 41.7767 72.0935 42.3911 73.347 43.2235C74.3654 43.8775 75.3055 44.6702 76.1477 45.6016C78.165 47.8213 79.4968 50.5958 80.1431 53.9252C80.4369 55.471 80.5936 57.1556 80.5936 58.959V71.3454C80.5936 73.129 80.4369 74.7739 80.1236 76.3197C79.4772 79.6095 78.1258 82.384 76.089 84.6235V84.6037Z" fill="#1D1D1B"/>
<path d="M122.82 34.325C117.454 29.8857 109.483 27.6859 98.9653 27.6859H86.8419V16.0923H126.659V0H69.1562V41.3604C70.7035 41.7766 72.1136 42.3909 73.3671 43.2233H98.9653C103.274 43.2233 106.564 44.1151 108.856 45.9186C111.147 47.722 112.303 50.2785 112.303 53.5683C112.303 56.8582 111.108 59.3751 108.738 61.2776C106.369 63.1999 103.137 64.1512 99.0632 64.1512H98.9457C94.8523 64.1512 91.5816 63.2198 89.153 61.3965C86.7048 59.5534 85.4709 57.0563 85.4709 53.9053H80.1241C80.4179 55.4511 80.5746 57.1356 80.5746 58.9391V71.3254C80.5746 73.109 80.4179 74.7539 80.1045 76.2997C84.9029 78.6581 90.8961 79.9066 98.1035 80.0255C98.4952 80.0255 98.8673 80.0255 99.2591 80.0255C105.487 80.0255 110.991 78.9355 115.77 76.7555C120.548 74.5954 124.25 71.5037 126.894 67.5203C129.519 63.5369 130.85 58.9589 130.85 53.7863C130.85 45.2249 128.167 38.7444 122.781 34.325H122.82Z" fill="#1D1D1B"/>
<path d="M176.367 73.0893C179.579 74.1991 182.556 75.4873 185.298 76.9538C188.04 78.4204 190.41 80.204 192.407 82.3047C194.405 84.4054 195.952 86.8629 197.049 89.6771C198.146 92.4912 198.694 95.7612 198.694 99.487C198.694 103.53 198.009 107.236 196.638 110.605C195.267 113.974 193.347 116.868 190.88 119.285C188.412 121.703 185.513 123.586 182.184 124.933C178.854 126.281 175.192 126.955 171.196 126.955H146.519V111.972H171.196C174.33 111.972 177.052 111.041 179.363 109.178C181.674 107.315 182.83 104.719 182.83 101.39C182.83 98.9321 182.34 96.9305 181.361 95.3847C180.382 93.8389 179.128 92.5705 177.601 91.5796C176.073 90.5887 174.349 89.7563 172.43 89.0825C170.511 88.4087 168.611 87.7151 166.731 87.0016C165.477 86.4467 164.204 85.8918 162.912 85.3369C161.619 84.782 160.346 84.2271 159.092 83.6722C154.784 81.3733 151.611 78.46 149.574 74.9324C147.537 71.4048 146.519 67.1835 146.519 62.2686C146.519 58.7014 147.145 55.4314 148.399 52.4587C149.652 49.4859 151.376 46.9294 153.569 44.789C155.763 42.6487 158.348 40.9642 161.325 39.7354C164.302 38.5067 167.514 37.8527 170.961 37.7734H198.694V52.3992H170.961C168.533 52.3992 166.496 53.2316 164.851 54.8963C163.205 56.561 162.383 58.6617 162.383 61.1984C162.383 63.2595 162.814 64.9639 163.675 66.3115C164.537 67.6591 165.654 68.7491 167.025 69.5815C168.395 70.4139 169.904 71.0877 171.549 71.603C173.194 72.1182 174.8 72.6137 176.367 73.0893Z" fill="#1D1D1B"/>
<path d="M508.418 19.0454V35.7521H229.697V126.955H213.481V35.7521H143.13V19.0454H508.418Z" fill="#1D1D1B"/>
<path d="M375.472 121.128C373.356 122.317 371.084 123.289 368.656 124.042C366.227 124.795 363.759 125.389 361.252 125.825C358.746 126.261 356.199 126.559 353.614 126.717C351.029 126.876 348.561 126.955 346.211 126.955H325.764V37.7734H345.858C348.914 37.7734 352.067 37.9122 355.318 38.1896C358.569 38.4671 361.781 38.9823 364.954 39.7354C368.127 40.4885 371.163 41.5389 374.061 42.8865C376.96 44.2341 379.624 45.9781 382.052 48.1185C386.831 52.3199 390.454 57.5321 392.922 63.755C395.39 69.9779 396.624 76.2602 396.624 82.602C396.624 86.4071 396.154 90.2122 395.214 94.0172C394.273 97.8223 392.903 101.429 391.101 104.838C389.299 108.247 387.086 111.358 384.461 114.172C381.837 116.986 378.84 119.305 375.472 121.128ZM370.888 60.6039C368.852 58.7806 366.697 57.3537 364.425 56.3232C362.153 55.2926 359.803 54.5396 357.375 54.0639C354.946 53.5883 352.439 53.3108 349.854 53.2316C347.268 53.1523 344.683 53.1127 342.098 53.1127V111.616H345.623C349.54 111.616 353.203 111.398 356.611 110.962C360.019 110.526 363.485 109.277 367.011 107.216C371.398 104.759 374.727 101.271 376.999 96.7521C379.271 92.2336 380.407 87.5169 380.407 82.602C380.407 78.5591 379.584 74.5757 377.939 70.6517C376.294 66.7277 373.944 63.3784 370.888 60.6039Z" fill="#1D1D1B"/>
<path d="M402.265 19.0454H418.364V126.955H402.265V19.0454Z" fill="#1D1D1B"/>
<path d="M469.58 126.955C463.547 126.955 457.848 125.805 452.482 123.507C447.115 121.208 442.415 118.057 438.38 114.053C434.345 110.05 431.153 105.353 428.803 99.9627C426.452 94.5721 425.277 88.7852 425.277 82.602C425.277 76.4188 426.433 70.4931 428.744 65.063C431.055 59.6328 434.228 54.8963 438.262 50.8534C442.297 46.8105 446.998 43.6198 452.364 41.2812C457.73 38.9427 463.469 37.7734 469.58 37.7734C475.69 37.7734 481.448 38.9427 486.854 41.2812C492.26 43.6198 496.96 46.8105 500.955 50.8534C504.951 54.8963 508.124 59.6328 510.474 65.063C512.824 70.4931 513.999 76.3395 513.999 82.602C513.999 88.8645 512.824 94.5721 510.474 99.9627C508.124 105.353 504.931 110.05 500.897 114.053C496.862 118.057 492.162 121.208 486.795 123.507C481.429 125.805 475.69 126.955 469.58 126.955ZM469.58 52.7559C465.584 52.7559 461.843 53.5487 458.357 55.1341C454.871 56.7195 451.835 58.8599 449.25 61.5552C446.665 64.2504 444.647 67.4015 443.198 71.0084C441.749 74.6153 441.024 78.4402 441.024 82.4831C441.024 86.526 441.768 90.2122 443.257 93.7794C444.745 97.3467 446.763 100.478 449.309 103.173C451.855 105.868 454.871 108.009 458.357 109.594C461.843 111.18 465.584 111.972 469.58 111.972C473.575 111.972 477.316 111.18 480.802 109.594C484.288 108.009 487.304 105.868 489.851 103.173C492.397 100.478 494.414 97.3467 495.902 93.7794C497.391 90.2122 498.135 86.4467 498.135 82.4831C498.135 78.5195 497.41 74.6153 495.961 71.0084C494.512 67.4015 492.514 64.2504 489.968 61.5552C487.422 58.8599 484.406 56.7195 480.92 55.1341C477.433 53.5487 473.653 52.7559 469.58 52.7559Z" fill="#1D1D1B"/>
<path d="M317.518 37.7734V126.955H270.121V126.836C267.399 126.836 264.696 126.559 262.013 126.004C259.33 125.449 256.745 124.636 254.277 123.566C251.809 122.496 249.498 121.168 247.383 119.583C245.268 117.997 243.387 116.214 241.762 114.232C239.372 111.219 237.786 107.751 236.963 103.827C236.141 99.9032 235.749 96.1576 235.749 92.5903V37.7734H253.513V92.5903C253.513 95.2063 253.768 97.6439 254.277 99.9032C254.786 102.162 255.687 104.164 256.96 105.908C258.233 107.652 259.937 109.02 262.072 110.01C264.207 111.001 266.89 111.497 270.121 111.497H298.501V37.7734H317.518Z" fill="#1D1D1B"/>
</g>
<defs>
<clipPath id="clip0_41_983">
<rect width="514" height="146" fill="white"/>
</clipPath>
</defs>
</svg>
