<svg width="281" height="316" viewBox="0 0 281 316" fill="none" xmlns="http://www.w3.org/2000/svg">
<g clip-path="url(#clip0_41_1012)">
<path d="M169.268 255.909C244.896 230.781 293.322 173.813 277.43 128.667C261.539 83.521 187.347 67.2926 111.718 92.4201C36.0902 117.548 -12.3359 174.516 3.55597 219.662C19.4478 264.808 93.6396 281.036 169.268 255.909Z" fill="white" stroke="black" stroke-miterlimit="10"/>
<path d="M149.829 183.53C130.082 199.837 118.936 238.904 97.3603 316.011C138.867 160.168 138.399 158.888 24.4814 127.859C139.128 156.223 140.184 155.335 183.65 0C163.283 76.4936 153.04 115.75 161.313 139.567C151.516 158.349 140.206 155.79 110.858 148.63C141.12 156.995 151.908 160.221 149.829 183.519V183.53Z" fill="black"/>
<path d="M168.008 151.475C175.606 160.633 187.95 167.084 206.096 173.388C182.79 166.947 171.099 163.563 168.008 151.475Z" fill="black"/>
<path d="M206.097 173.388L206.369 173.462C219.78 178.104 236.391 182.694 256.53 188.151C206.685 175.82 178.284 169.02 158.57 178.041C167.834 164.335 179.525 166.915 206.097 173.388Z" fill="black"/>
</g>
<defs>
<clipPath id="clip0_41_1012">
<rect width="281" height="316" fill="white"/>
</clipPath>
</defs>
</svg>
