<svg width="254" height="269" viewBox="0 0 254 269" fill="none" xmlns="http://www.w3.org/2000/svg">
<g clip-path="url(#clip0_41_1028)">
<path d="M174.836 0.0853943C175.074 0.954871 174.456 1.09057 174.05 1.59316C172.097 4.02066 169.035 6.06619 166.749 8.21224C166.274 8.65954 165.599 8.65451 165.868 9.62953C174.546 7.03618 185.547 4.25687 194.356 7.37794C202.058 10.102 209.749 16.7009 215.481 22.1892C209.01 21.9379 202.633 20.1638 196.204 19.6863C195.623 19.6411 194.235 19.3144 194.367 20.1789C215.55 25.7526 234.088 41.9258 240.813 61.8987C240.312 62.4163 229.422 55.2896 228.203 54.5659C227.754 54.2995 227.057 53.3044 226.566 54.1086C237.884 64.0799 245.823 78.1775 250.563 92.074C254.379 103.262 254.765 113.57 252.954 125.225L237.129 106.634C239.14 116.022 242.07 125.3 243.732 134.769C245.073 142.398 245.226 146.71 243.732 154.395C239.985 173.639 226.836 192.29 211.264 204.644C217.419 191.134 226.297 174.79 225.004 159.647C224.898 158.38 224.751 156.028 223.405 155.395C221.166 172.568 212.626 189.476 202.712 203.799C186.966 226.551 158.341 252.4 133.616 266.17C131.188 267.522 129.045 269.352 126.052 268.955C123.613 268.633 113.98 262.084 111.324 260.34C78.8189 238.95 45.5375 206.071 33.7557 169.347C32.3252 164.889 30.805 160.054 30.7258 155.395C29.1316 155.149 29.8812 155.772 29.6595 156.616C25.8748 170.945 36.8595 191.682 42.8612 204.649C25.8009 191.38 9.91761 167.522 9.08887 146.092C8.60324 133.482 15.2015 118.701 16.9962 106.141L1.17628 125.225C-1.66359 110.383 0.801503 97.708 6.72935 84.0276C11.5117 72.9908 18.168 62.1047 27.5586 54.1035L25.9223 54.5559L12.7839 62.3962C20.2742 41.7047 38.7387 25.5515 60.8137 19.6712C60.9351 18.7314 59.7685 19.3194 59.2143 19.4049C52.3785 20.4352 45.5533 21.6313 38.6489 22.1892C45.1732 15.8817 55.6671 6.89546 65.2846 6.09132C73.1444 5.43795 80.677 7.84032 88.2676 9.12192L79.2993 0.829224C78.7925 -0.326728 81.0518 0.0502132 81.6588 0.0904202C96.6816 1.01518 113.188 9.35311 127.065 14.4695C142.326 8.35296 158.04 1.11067 174.831 0.0853943H174.836ZM158.462 122.214C159.724 124.762 162.004 127.647 164.005 129.758C165.298 131.12 168.724 134.9 170.608 134.558C173.591 134.015 181.92 128.753 184.718 126.848C191.802 122.018 197.592 118.384 198.051 109.388C198.817 94.4412 181.086 66.2159 164.406 64.0397C156.071 62.9541 152.846 66.7989 145.693 69.0806C133.436 72.9807 119.744 72.9506 107.519 68.955C100.651 66.7134 97.711 63.0596 89.6453 63.9643C71.355 66.0149 50.6102 99.5425 56.8706 115.665C58.8448 120.742 72.8963 129.994 78.2119 132.537C79.5949 133.196 83.1896 134.889 84.4089 134.412C87.4124 133.246 92.6118 125.768 94.8183 123.159C95.2511 122.646 94.7972 121.888 96.1802 122.214C95.2353 125.632 93.6728 128.838 91.857 131.914C88.8377 137.01 82.4928 143.011 80.2441 147.494C79.0776 149.821 79.0248 151.822 79.6529 154.284C80.9145 159.205 91.8834 170.684 97.2306 171.262C101.1 171.679 124.157 163.291 125.128 160.577V151.942C119.11 148.756 112.253 144.997 108.553 139.317L109.107 138.307C120.715 139.825 132.877 139.825 144.49 138.307L145.044 139.312C141.233 144.971 134.571 148.761 128.469 151.937V160.572C129.409 163.2 152.228 171.548 155.965 171.337C160.732 171.066 169.463 162.175 171.886 158.35C177.761 149.078 172.012 146.489 167.013 139.453C163.218 134.105 159.254 128.788 157.422 122.45L158.457 122.214H158.462ZM155.258 175.529C145.883 172.001 135.717 168.613 125.46 168.93C118.07 169.161 106.099 172.131 99.4846 175.343C97.9168 176.107 99.5162 179.414 100.007 180.64C102.05 185.706 107.598 191.169 113.082 192.818C118.82 194.547 135.289 194.552 141.048 192.818C147.989 190.727 155.237 182.62 155.253 175.529H155.258Z" fill="black"/>
<path d="M158.463 122.214L157.428 122.45C159.26 128.793 163.224 134.11 167.019 139.453C172.018 146.489 177.761 149.072 171.891 158.35C169.468 162.175 160.743 171.071 155.971 171.337C152.234 171.548 129.415 163.2 128.475 160.572V151.937C134.577 148.756 141.239 144.971 145.05 139.312L144.495 138.307C132.883 139.825 120.721 139.825 109.113 138.307L108.559 139.317C112.259 144.991 119.116 148.756 125.139 151.942V160.577C124.162 163.296 101.105 171.684 97.2416 171.262C91.8944 170.684 80.9255 159.205 79.6639 154.284C79.0305 151.822 79.0885 149.821 80.2551 147.494C82.5038 143.011 88.8539 137.015 91.868 131.914C93.6891 128.838 95.2515 125.637 96.1911 122.214C94.8081 121.888 95.2674 122.646 94.8292 123.159C92.6228 125.768 87.4181 133.246 84.4199 134.412C83.1953 134.884 79.6005 133.196 78.2228 132.537C72.902 129.994 58.8504 120.747 56.8815 115.665C50.6211 99.5425 71.366 66.0098 89.6562 63.9643C97.7166 63.0596 100.662 66.7084 107.53 68.955C119.755 72.9506 133.453 72.9807 145.704 69.0806C152.862 66.8039 156.087 62.9541 164.417 64.0397C181.097 66.2109 198.828 94.4362 198.062 109.388C197.603 118.379 191.807 122.018 184.729 126.848C181.931 128.753 173.602 134.015 170.619 134.558C168.735 134.9 165.309 131.12 164.016 129.758C162.015 127.652 159.729 124.762 158.473 122.214H158.463ZM105.154 120.701C105.592 117.766 109.842 107.911 107.26 105.885C101.586 104.111 95.8163 99.5173 89.5876 99.5576C85.787 99.5777 80.7829 102.829 78.2439 105.378C80.6932 105.719 83.1055 105.599 85.4703 106.533C87.6926 107.413 88.6586 109.041 90.5219 110.268C94.18 112.67 98.0439 113.504 102.219 111.68C103.191 111.876 103.866 117.927 104.262 119.299C104.41 119.817 104.394 120.822 105.149 120.701H105.154ZM176.415 105.131C172.641 102.955 169.358 99.4972 164.543 99.5576C159.202 99.6279 154.889 102.553 150.392 104.719C147.061 106.322 145.942 104.674 146.39 109.835C146.522 111.368 148.507 119.143 149.23 120.209C149.394 120.45 149.895 120.857 150.022 120.706L151.616 111.66C158.352 114.56 163.899 110.8 168.655 106.528L176.415 105.136V105.131Z" fill="white"/>
<path d="M155.258 175.529C155.237 182.62 147.995 190.732 141.054 192.818C135.295 194.552 118.826 194.547 113.088 192.818C107.609 191.169 102.056 185.706 100.013 180.64C99.5166 179.414 97.9172 176.102 99.4902 175.343C106.104 172.136 118.076 169.161 125.466 168.93C135.722 168.608 145.889 172.001 155.264 175.529H155.258Z" fill="white"/>
<path d="M176.415 105.131L168.655 106.523C163.899 110.795 158.352 114.555 151.616 111.655L150.022 120.701C149.895 120.852 149.394 120.445 149.23 120.204C148.507 119.138 146.528 111.368 146.39 109.83C145.942 104.669 147.061 106.317 150.392 104.714C154.889 102.548 159.202 99.6229 164.543 99.5525C169.352 99.4922 172.641 102.95 176.415 105.126V105.131Z" fill="black"/>
<path d="M105.155 120.701C104.4 120.822 104.416 119.817 104.268 119.299C103.872 117.927 103.197 111.876 102.225 111.68C98.05 113.504 94.186 112.67 90.528 110.268C88.6646 109.041 87.6987 107.418 85.4764 106.533C83.1116 105.599 80.6993 105.719 78.25 105.378C80.789 102.824 85.7931 99.5777 89.5937 99.5576C95.8224 99.5224 101.592 104.111 107.266 105.885C109.848 107.906 105.598 117.761 105.16 120.701H105.155Z" fill="black"/>
</g>
<defs>
<clipPath id="clip0_41_1028">
<rect width="254" height="269" fill="white"/>
</clipPath>
</defs>
</svg>
